<?xml version="1.0" standalone="no"?>
<!DOCTYPE svg PUBLIC "-//W3C//DTD SVG 20010904//EN"
 "http://www.w3.org/TR/2001/REC-SVG-20010904/DTD/svg10.dtd">
<svg version="1.0" xmlns="http://www.w3.org/2000/svg"
 width="512.000000pt" height="512.000000pt" viewBox="0 0 512.000000 512.000000"
 preserveAspectRatio="xMidYMid meet">
<metadata>
Created by potrace 1.14, written by Peter Selinger 2001-2017
</metadata>
<g transform="translate(0.000000,512.000000) scale(0.100000,-0.100000)"
fill="#000000" stroke="none">
<path d="M2230 4949 c-162 -94 -315 -183 -340 -197 -25 -14 -85 -48 -135 -77
-49 -29 -106 -62 -125 -73 -19 -11 -161 -93 -315 -182 -154 -89 -336 -195
-405 -235 -69 -40 -201 -116 -295 -170 -93 -54 -179 -104 -190 -110 -64 -36
-85 -52 -99 -76 -14 -24 -16 -101 -16 -671 0 -609 1 -645 19 -673 14 -22 119
-88 417 -260 219 -126 412 -238 429 -248 16 -10 38 -20 48 -23 25 -9 21 -17
-20 -39 -21 -11 -99 -55 -173 -99 -74 -43 -153 -88 -175 -100 -22 -13 -147
-84 -278 -160 -247 -144 -267 -160 -267 -223 0 -15 10 -40 23 -54 18 -21 215
-140 457 -277 25 -14 142 -81 260 -150 118 -69 231 -134 250 -145 55 -31 722
-416 978 -564 150 -87 246 -137 270 -140 33 -4 62 11 282 138 135 78 452 261
705 407 253 146 492 284 530 307 39 23 77 44 85 48 8 4 152 86 320 184 210
123 308 186 317 203 10 19 13 169 13 650 0 593 -1 627 -19 655 -14 23 -133 96
-479 295 -254 146 -461 267 -462 270 0 3 134 82 297 175 162 94 319 184 348
200 29 17 102 59 164 93 61 35 120 75 131 89 27 35 26 91 -3 125 -12 14 -168
111 -347 214 -179 103 -381 220 -450 259 -363 210 -519 300 -555 320 -22 13
-80 46 -130 75 -49 29 -105 61 -123 72 -18 10 -102 58 -185 106 -355 206 -388
224 -424 229 -35 4 -65 -12 -333 -168z m494 -151 c88 -51 169 -97 178 -103 9
-5 45 -26 80 -46 79 -45 86 -49 348 -201 118 -69 424 -245 680 -393 256 -147
467 -270 470 -272 5 -5 -2 -10 -80 -54 -44 -25 -680 -394 -945 -547 -71 -41
-148 -85 -170 -98 -22 -12 -195 -112 -385 -222 l-344 -199 -31 17 c-50 28
-293 169 -405 235 -58 34 -112 64 -120 68 -8 4 -30 16 -48 27 -29 18 -699 406
-777 450 -16 9 -112 65 -213 123 -101 59 -188 107 -193 107 -5 0 -9 5 -9 10 0
6 -4 10 -9 10 -12 0 -121 63 -121 70 0 3 17 14 37 25 21 11 82 46 136 77 53
32 102 58 107 58 6 0 10 5 10 10 0 6 4 10 9 10 5 0 75 39 157 86 271 157 668
386 704 406 19 11 136 79 260 151 124 71 241 139 260 150 19 11 49 28 65 38
17 11 37 22 45 26 8 4 40 22 70 40 30 18 59 33 64 33 5 0 81 -42 170 -92z
m-2017 -1311 c98 -57 259 -150 358 -207 99 -57 186 -108 193 -114 9 -9 -73
-61 -357 -224 -203 -117 -373 -212 -378 -212 -4 0 -8 194 -8 430 0 237 3 430
7 430 3 0 87 -46 185 -103z m933 -540 c52 -30 111 -64 130 -75 19 -11 196
-113 393 -227 259 -150 366 -207 390 -208 26 -1 82 27 238 117 112 65 224 130
249 144 25 14 132 76 238 139 107 62 196 113 198 113 2 0 34 19 71 42 38 22
73 41 78 41 6 0 35 -15 65 -33 30 -18 69 -41 85 -50 108 -63 167 -97 215 -124
191 -107 490 -282 490 -286 0 -3 -97 -62 -217 -130 -119 -69 -237 -137 -262
-152 -25 -15 -53 -31 -61 -35 -8 -3 -32 -17 -53 -30 -21 -13 -55 -33 -75 -45
-56 -31 -1128 -650 -1196 -690 l-59 -35 -189 109 c-103 59 -203 117 -221 127
-17 10 -161 93 -319 184 -157 91 -301 174 -318 184 -18 10 -40 23 -49 28 -9 6
-200 116 -424 245 -224 129 -407 237 -407 240 0 3 59 39 132 80 72 41 150 86
174 100 64 38 260 150 328 189 33 18 96 55 140 81 l81 48 30 -18 c17 -9 73
-42 125 -73z m2952 -1067 c0 -260 -4 -476 -9 -480 -4 -4 -109 -66 -233 -138
-124 -71 -239 -138 -257 -148 -17 -11 -98 -57 -179 -104 -81 -47 -171 -98
-200 -115 -28 -16 -132 -76 -230 -133 -99 -57 -186 -108 -194 -112 -8 -5 -46
-27 -84 -50 -37 -22 -69 -40 -71 -40 -3 0 -188 -107 -225 -130 -22 -14 -234
-134 -242 -138 -5 -2 -8 212 -8 475 l1 478 486 280 c267 154 507 292 532 306
25 14 219 126 431 249 212 122 401 231 420 242 19 11 39 24 44 29 5 5 11 7 14
5 2 -2 4 -217 4 -476z m-2902 -198 c118 -69 229 -133 245 -142 17 -10 129 -74
249 -144 121 -69 223 -126 228 -126 4 0 8 -4 8 -10 0 -5 7 -10 15 -10 13 0 15
-60 15 -480 0 -264 -2 -480 -3 -480 -2 0 -156 88 -343 196 -186 108 -359 208
-384 222 -25 14 -76 44 -115 67 -38 22 -77 44 -85 48 -8 4 -123 70 -255 147
-132 77 -329 190 -437 252 -109 62 -198 115 -198 118 0 5 114 73 233 139 45
26 54 31 297 171 107 62 211 122 230 132 19 11 39 24 44 28 12 12 20 8 256
-128z"/>
</g>
</svg>
