<?xml version='1.0' encoding='UTF-8'?>
<svg xmlns="http://www.w3.org/2000/svg" xmlns:xlink="http://www.w3.org/1999/xlink" width="750pt" height="624pt" viewBox="0 0 750 624" version="1.1">
<!--Creator: logaster.com--><g id="surface1">
<rect x="0" y="0" width="750" height="624" style="fill:rgb(100%,100%,100%);fill-opacity:1;stroke:none;"/>
<path style=" stroke:none;fill-rule:nonzero;fill:rgb(11.372375%,56.077576%,74.116516%);fill-opacity:1;" d="M 52.449219 356.09375 C 52.449219 357.355469 53.167969 358.523438 54.246094 359.246094 L 128.492188 402.109375 C 129.574219 402.738281 131.011719 402.738281 132.09375 402.109375 L 206.339844 359.246094 C 207.417969 358.617188 208.136719 357.445312 208.136719 356.09375 L 208.136719 314.582031 C 208.136719 313.320312 207.417969 312.148438 206.339844 311.429688 L 174.570312 293.058594 L 206.339844 274.78125 C 208.046875 273.789062 208.679688 271.539062 207.6875 269.828125 C 207.328125 269.285156 206.878906 268.835938 206.339844 268.476562 L 132.09375 225.613281 C 131.011719 224.984375 129.574219 224.984375 128.492188 225.613281 L 54.246094 268.566406 C 53.167969 269.195312 52.449219 270.367188 52.449219 271.71875 L 52.449219 314.582031 C 52.449219 315.84375 53.167969 317.011719 54.246094 317.734375 L 84.84375 335.382812 L 54.246094 353.03125 C 53.167969 353.664062 52.449219 354.832031 52.449219 356.09375 Z M 133.894531 392.742188 L 133.894531 359.515625 L 200.9375 320.792969 L 200.9375 354.023438 Z M 130.292969 232.90625 L 197.339844 271.628906 L 130.292969 310.347656 L 63.246094 271.628906 Z M 59.648438 277.933594 L 86.015625 293.148438 L 59.648438 308.277344 Z M 93.214844 297.292969 L 128.492188 317.734375 C 129.574219 318.363281 131.011719 318.363281 132.09375 317.734375 L 167.371094 297.292969 L 197.339844 314.582031 L 130.292969 353.300781 L 63.246094 314.582031 Z M 92.046875 339.523438 L 126.691406 359.515625 L 126.691406 392.742188 L 63.246094 356.09375 Z M 92.046875 339.523438 "/>
<path style=" stroke:none;fill-rule:nonzero;fill:rgb(11.372375%,56.077576%,74.116516%);fill-opacity:1;" d="M 282.992188 344.875 L 282.992188 336 C 294.734375 340.175781 308.355469 340.175781 308.355469 340.175781 C 327.609375 340.175781 327.609375 326.078125 327.609375 326.078125 C 327.609375 314.066406 313.414062 314.066406 313.414062 314.066406 L 303.8125 314.066406 C 280.382812 314.066406 280.382812 293.703125 280.382812 293.703125 C 280.382812 272.296875 310.390625 272.296875 310.390625 272.296875 C 323.433594 272.296875 334.65625 275.429688 334.65625 275.429688 L 334.65625 284.304688 C 323.433594 280.128906 310.390625 280.128906 310.390625 280.128906 C 290.035156 280.128906 290.035156 293.703125 290.035156 293.703125 C 290.035156 305.714844 303.8125 305.714844 303.8125 305.714844 L 313.414062 305.714844 C 337.265625 305.714844 337.265625 326.078125 337.265625 326.078125 C 337.265625 348.007812 308.355469 348.007812 308.355469 348.007812 C 294.734375 348.007812 282.992188 344.875 282.992188 344.875 Z M 282.992188 344.875 "/>
<path style=" stroke:none;fill-rule:nonzero;fill:rgb(11.372375%,56.077576%,74.116516%);fill-opacity:1;" d="M 400.144531 272.816406 L 400.144531 280.648438 L 361.007812 280.648438 L 361.007812 305.714844 L 398.320312 305.714844 L 398.320312 313.546875 L 361.007812 313.546875 L 361.007812 339.652344 L 400.929688 339.652344 L 400.929688 347.484375 L 351.351562 347.484375 L 351.351562 272.816406 Z M 400.144531 272.816406 "/>
<path style=" stroke:none;fill-rule:nonzero;fill:rgb(11.372375%,56.077576%,74.116516%);fill-opacity:1;" d="M 471.898438 344.875 C 462.246094 348.007812 451.027344 348.007812 451.027344 348.007812 C 411.886719 348.007812 411.886719 309.105469 411.886719 309.105469 C 411.886719 272.296875 451.027344 272.296875 451.027344 272.296875 C 462.246094 272.296875 471.898438 275.429688 471.898438 275.429688 L 471.898438 283.78125 C 462.246094 280.128906 452.070312 280.128906 452.070312 280.128906 C 421.542969 280.128906 421.542969 309.105469 421.542969 309.105469 C 421.542969 340.175781 452.070312 340.175781 452.070312 340.175781 C 462.246094 340.175781 471.898438 336.519531 471.898438 336.519531 Z M 471.898438 344.875 "/>
<path style=" stroke:none;fill-rule:nonzero;fill:rgb(11.372375%,56.077576%,74.116516%);fill-opacity:1;" d="M 487.292969 318.664062 L 487.292969 272.816406 L 496.949219 272.816406 L 496.949219 318.664062 C 496.949219 340.175781 518.34375 340.175781 518.34375 340.175781 C 539.738281 340.175781 539.738281 318.664062 539.738281 318.664062 L 539.738281 272.816406 L 549.394531 272.816406 L 549.394531 318.664062 C 549.394531 348.007812 518.34375 348.007812 518.34375 348.007812 C 487.292969 348.007812 487.292969 318.664062 487.292969 318.664062 Z M 487.292969 318.664062 "/>
<path style=" stroke:none;fill-rule:nonzero;fill:rgb(11.372375%,56.077576%,74.116516%);fill-opacity:1;" d="M 566.613281 347.484375 L 566.613281 272.816406 L 598.445312 272.816406 C 619.738281 272.816406 619.738281 290.726562 619.738281 290.726562 C 619.738281 305.296875 598.917969 312.292969 598.917969 312.292969 L 624.539062 347.484375 L 611.804688 347.484375 L 588.0625 313.910156 L 588.0625 307.59375 C 609.457031 304.199219 609.457031 291.144531 609.457031 291.144531 C 609.457031 280.804688 597.558594 280.804688 597.558594 280.804688 L 576.269531 280.804688 L 576.269531 347.484375 Z M 566.613281 347.484375 "/>
<path style=" stroke:none;fill-rule:nonzero;fill:rgb(11.372375%,56.077576%,74.116516%);fill-opacity:1;" d="M 634.191406 318.664062 L 634.191406 272.816406 L 643.847656 272.816406 L 643.847656 318.664062 C 643.847656 340.175781 665.242188 340.175781 665.242188 340.175781 C 686.636719 340.175781 686.636719 318.664062 686.636719 318.664062 L 686.636719 272.816406 L 696.292969 272.816406 L 696.292969 318.664062 C 696.292969 348.007812 665.242188 348.007812 665.242188 348.007812 C 634.191406 348.007812 634.191406 318.664062 634.191406 318.664062 Z M 634.191406 318.664062 "/>
<path style=" stroke:none;fill-rule:nonzero;fill:rgb(11.372375%,56.077576%,74.116516%);fill-opacity:1;" d="M 487.464844 402.390625 L 697.550781 402.390625 L 697.550781 398.535156 L 487.464844 398.535156 Z M 487.464844 402.390625 "/>
<path style=" stroke:none;fill-rule:nonzero;fill:rgb(11.372375%,56.077576%,74.116516%);fill-opacity:1;" d="M 281.8125 221.34375 L 472.800781 221.34375 L 472.800781 224.847656 L 281.8125 224.847656 Z M 281.8125 221.34375 "/>
</g>
</svg>