<?xml version='1.0' encoding='UTF-8'?>
<svg xmlns="http://www.w3.org/2000/svg" xmlns:xlink="http://www.w3.org/1999/xlink" width="750pt" height="624pt" viewBox="0 0 750 624" version="1.1">
<!--Creator: logaster.com--><g id="surface1">
<rect x="0" y="0" width="750" height="624" style="fill:rgb(100%,100%,100%);fill-opacity:1;stroke:none;"/>
<path style=" stroke:none;fill-rule:nonzero;fill:rgb(11.372375%,56.077576%,74.116516%);fill-opacity:1;" d="M 258.019531 248.78125 C 258.019531 250.757812 259.148438 252.589844 260.839844 253.71875 L 377.148438 320.867188 C 378.839844 321.855469 381.097656 321.855469 382.789062 320.867188 L 499.097656 253.71875 C 500.789062 252.734375 501.917969 250.898438 501.917969 248.78125 L 501.917969 183.75 C 501.917969 181.777344 500.789062 179.941406 499.097656 178.8125 L 449.332031 150.035156 L 499.097656 121.402344 C 501.777344 119.847656 502.761719 116.320312 501.210938 113.640625 C 500.648438 112.796875 499.941406 112.089844 499.097656 111.527344 L 382.789062 44.378906 C 381.097656 43.390625 378.839844 43.390625 377.148438 44.378906 L 260.839844 111.667969 C 259.148438 112.65625 258.019531 114.488281 258.019531 116.605469 L 258.019531 183.75 C 258.019531 185.726562 259.148438 187.558594 260.839844 188.6875 L 308.773438 216.335938 L 260.839844 243.988281 C 259.148438 244.972656 258.019531 246.808594 258.019531 248.78125 Z M 385.605469 306.195312 L 385.605469 254.144531 L 490.636719 193.484375 L 490.636719 245.539062 Z M 379.96875 55.804688 L 485 116.464844 L 379.96875 177.121094 L 274.9375 116.464844 Z M 269.296875 126.335938 L 310.605469 150.179688 L 269.296875 173.875 Z M 321.882812 156.667969 L 377.148438 188.6875 C 378.839844 189.675781 381.097656 189.675781 382.789062 188.6875 L 438.050781 156.667969 L 485 183.75 L 379.96875 244.410156 L 274.9375 183.75 Z M 320.050781 222.828125 L 374.328125 254.144531 L 374.328125 306.195312 L 274.9375 248.78125 Z M 320.050781 222.828125 "/>
<path style=" stroke:none;fill-rule:nonzero;fill:rgb(11.372375%,56.077576%,74.116516%);fill-opacity:1;" d="M 163.835938 522.234375 L 163.835938 510.921875 C 176.90625 515.164062 190.261719 515.164062 190.261719 515.164062 C 207.996094 515.164062 207.996094 504.558594 207.996094 504.558594 C 207.996094 494.660156 195.632812 494.660156 195.632812 494.660156 L 185.03125 494.660156 C 161.007812 494.660156 161.007812 472.746094 161.007812 472.746094 C 161.007812 451.535156 191.886719 451.535156 191.886719 451.535156 C 205.167969 451.535156 218.242188 455.070312 218.242188 455.070312 L 218.242188 466.382812 C 205.167969 462.140625 191.886719 462.140625 191.886719 462.140625 C 173.375 462.140625 173.375 472.746094 173.375 472.746094 C 173.375 482.644531 185.03125 482.644531 185.03125 482.644531 L 195.632812 482.644531 C 221.066406 482.644531 221.066406 504.558594 221.066406 504.558594 C 221.066406 525.769531 190.261719 525.769531 190.261719 525.769531 C 176.90625 525.769531 163.835938 522.234375 163.835938 522.234375 Z M 163.835938 522.234375 "/>
<path style=" stroke:none;fill-rule:nonzero;fill:rgb(11.372375%,56.077576%,74.116516%);fill-opacity:1;" d="M 269.328125 451.535156 C 300.980469 451.535156 300.980469 482.855469 300.980469 482.855469 C 300.980469 487.308594 300.34375 492.398438 300.34375 492.398438 L 248.269531 492.398438 C 248.269531 515.164062 274.835938 515.164062 274.835938 515.164062 C 287.484375 515.164062 297.308594 512.335938 297.308594 512.335938 L 297.308594 522.941406 C 287.484375 525.769531 273.425781 525.769531 273.425781 525.769531 C 235.199219 525.769531 235.199219 487.804688 235.199219 487.804688 C 235.199219 451.535156 269.328125 451.535156 269.328125 451.535156 Z M 248.269531 481.511719 L 288.402344 481.511719 C 287.980469 462 269.328125 462 269.328125 462 C 249.542969 462 248.269531 481.511719 248.269531 481.511719 Z M 248.269531 481.511719 "/>
<path style=" stroke:none;fill-rule:nonzero;fill:rgb(11.372375%,56.077576%,74.116516%);fill-opacity:1;" d="M 374.394531 523.648438 C 365.207031 525.769531 354.609375 525.769531 354.609375 525.769531 C 315.042969 525.769531 315.042969 487.238281 315.042969 487.238281 C 315.042969 451.535156 354.609375 451.535156 354.609375 451.535156 C 365.207031 451.535156 374.394531 453.65625 374.394531 453.65625 L 374.394531 464.261719 C 365.207031 462.140625 353.902344 462.140625 353.902344 462.140625 C 328.113281 462.140625 328.113281 487.238281 328.113281 487.238281 C 328.113281 515.164062 353.902344 515.164062 353.902344 515.164062 C 365.207031 515.164062 374.394531 513.042969 374.394531 513.042969 Z M 374.394531 523.648438 "/>
<path style=" stroke:none;fill-rule:nonzero;fill:rgb(11.372375%,56.077576%,74.116516%);fill-opacity:1;" d="M 454.941406 451.535156 L 454.941406 525.769531 L 445.96875 525.769531 L 443.707031 516.296875 C 430.210938 525.769531 416.574219 525.769531 416.574219 525.769531 C 390.996094 525.769531 390.996094 498.125 390.996094 498.125 L 390.996094 451.535156 L 404.070312 451.535156 L 404.070312 498.339844 C 404.070312 514.882812 420.460938 514.882812 420.460938 514.882812 C 431.695312 514.882812 441.871094 505.480469 441.871094 505.480469 L 441.871094 451.535156 Z M 454.941406 451.535156 "/>
<path style=" stroke:none;fill-rule:nonzero;fill:rgb(11.372375%,56.077576%,74.116516%);fill-opacity:1;" d="M 476.140625 525.769531 L 476.140625 451.535156 L 484.972656 451.535156 L 487.304688 461.007812 C 497.054688 451.535156 510.761719 451.535156 510.761719 451.535156 L 510.761719 462.421875 C 497.476562 462.421875 489.210938 471.824219 489.210938 471.824219 L 489.210938 525.769531 Z M 476.140625 525.769531 "/>
<path style=" stroke:none;fill-rule:nonzero;fill:rgb(11.372375%,56.077576%,74.116516%);fill-opacity:1;" d="M 587.777344 451.535156 L 587.777344 525.769531 L 578.804688 525.769531 L 576.542969 516.296875 C 563.046875 525.769531 549.410156 525.769531 549.410156 525.769531 C 523.832031 525.769531 523.832031 498.125 523.832031 498.125 L 523.832031 451.535156 L 536.90625 451.535156 L 536.90625 498.339844 C 536.90625 514.882812 553.296875 514.882812 553.296875 514.882812 C 564.53125 514.882812 574.707031 505.480469 574.707031 505.480469 L 574.707031 451.535156 Z M 587.777344 451.535156 "/>
<path style=" stroke:none;fill-rule:nonzero;fill:rgb(11.372375%,56.077576%,74.116516%);fill-opacity:1;" d="M 392.304688 580.289062 L 590.027344 580.289062 L 590.027344 575.167969 L 392.304688 575.167969 Z M 392.304688 580.289062 "/>
<path style=" stroke:none;fill-rule:nonzero;fill:rgb(11.372375%,56.077576%,74.116516%);fill-opacity:1;" d="M 163.5 400.621094 L 372.472656 400.621094 L 372.472656 395.207031 L 163.5 395.207031 Z M 163.5 400.621094 "/>
</g>
</svg>